<svg xmlns="http://www.w3.org/2000/svg" xmlns:xlink="http://www.w3.org/1999/xlink" width="715" zoomAndPan="magnify" viewBox="0 0 536.25 74.999997" height="100" preserveAspectRatio="xMidYMid meet" version="1.0"><defs><g/><clipPath id="3f24912288"><path d="M 47 45 L 58.664062 45 L 58.664062 54 L 47 54 Z M 47 45 " clip-rule="nonzero"/></clipPath><clipPath id="fa6adbb9b9"><path d="M 22 0.1875 L 36 0.1875 L 36 11 L 22 11 Z M 22 0.1875 " clip-rule="nonzero"/></clipPath><clipPath id="db928b18f6"><path d="M 9 66 L 50 66 L 50 74.644531 L 9 74.644531 Z M 9 66 " clip-rule="nonzero"/></clipPath></defs><path fill="#a67c52" d="M 10.675781 45.394531 L 10.675781 53.371094 L 1.351562 53.371094 C 0.617188 53.371094 0.0195312 52.773438 0.0195312 52.042969 L 0.0195312 49.382812 C 0.0195312 47.179688 1.808594 45.394531 4.015625 45.394531 L 10.675781 45.394531 " fill-opacity="1" fill-rule="nonzero"/><path fill="#5a3d30" d="M 10.675781 53.371094 L 10.675781 66.667969 L 5.347656 66.667969 C 3.136719 66.667969 1.351562 64.886719 1.351562 62.679688 L 1.351562 53.371094 L 10.675781 53.371094 " fill-opacity="1" fill-rule="nonzero"/><path fill="#5a3d30" d="M 57.3125 53.371094 L 57.3125 62.679688 C 57.3125 64.886719 55.527344 66.667969 53.316406 66.667969 L 47.988281 66.667969 L 47.988281 53.371094 L 57.3125 53.371094 " fill-opacity="1" fill-rule="nonzero"/><g clip-path="url(#3f24912288)"><path fill="#a67c52" d="M 54.648438 45.394531 C 56.855469 45.394531 58.644531 47.179688 58.644531 49.382812 L 58.644531 52.042969 C 58.644531 52.773438 58.046875 53.371094 57.3125 53.371094 L 47.988281 53.371094 L 47.988281 45.394531 L 54.648438 45.394531 " fill-opacity="1" fill-rule="nonzero"/></g><path fill="#8a6642" d="M 9.34375 25.765625 L 9.34375 68.3125 C 9.34375 71.253906 11.730469 73.632812 14.675781 73.632812 L 43.988281 73.632812 C 46.933594 73.632812 49.320312 71.253906 49.320312 68.3125 L 49.320312 25.765625 L 9.34375 25.765625 " fill-opacity="1" fill-rule="nonzero"/><g clip-path="url(#fa6adbb9b9)"><path fill="#5a3d30" d="M 35.996094 10.824219 L 33.328125 10.824219 L 33.328125 4.175781 C 33.328125 3.441406 32.730469 2.847656 31.996094 2.847656 L 26.667969 2.847656 C 25.933594 2.847656 25.335938 3.441406 25.335938 4.175781 L 25.335938 10.824219 L 22.667969 10.824219 L 22.667969 4.175781 C 22.667969 1.972656 24.460938 0.1875 26.667969 0.1875 L 31.996094 0.1875 C 34.203125 0.1875 35.996094 1.972656 35.996094 4.175781 L 35.996094 10.824219 " fill-opacity="1" fill-rule="nonzero"/></g><path fill="#fada5e" d="M 51.984375 9.492188 L 6.679688 9.492188 C 4.46875 9.492188 2.683594 11.277344 2.683594 13.484375 L 2.683594 24.121094 C 2.683594 26.328125 4.46875 28.109375 6.679688 28.109375 L 51.984375 28.109375 C 54.195312 28.109375 55.980469 26.328125 55.980469 24.121094 L 55.980469 13.484375 C 55.980469 11.277344 54.195312 9.492188 51.984375 9.492188 " fill-opacity="1" fill-rule="nonzero"/><path fill="#d1b646" d="M 51.984375 24.121094 L 6.679688 24.121094 C 4.46875 24.121094 2.683594 22.339844 2.683594 20.132812 L 2.683594 24.121094 C 2.683594 26.328125 4.46875 28.109375 6.679688 28.109375 L 51.984375 28.109375 C 54.195312 28.109375 55.980469 26.328125 55.980469 24.121094 L 55.980469 20.132812 C 55.980469 22.339844 54.195312 24.121094 51.984375 24.121094 " fill-opacity="1" fill-rule="nonzero"/><path fill="#5a3d30" d="M 17.339844 9.492188 L 17.339844 41.40625 C 17.339844 42.875 18.53125 44.0625 20.003906 44.0625 C 21.476562 44.0625 22.667969 42.875 22.667969 41.40625 L 22.667969 8.164062 C 22.667969 7.433594 22.070312 6.835938 21.335938 6.835938 L 18.671875 6.835938 C 17.9375 6.835938 17.339844 7.433594 17.339844 8.164062 L 17.339844 9.492188 " fill-opacity="1" fill-rule="nonzero"/><path fill="#5a3d30" d="M 35.996094 9.492188 L 35.996094 41.40625 C 35.996094 42.875 37.1875 44.0625 38.660156 44.0625 C 40.132812 44.0625 41.324219 42.875 41.324219 41.40625 L 41.324219 8.164062 C 41.324219 7.433594 40.726562 6.835938 39.992188 6.835938 L 37.328125 6.835938 C 36.59375 6.835938 35.996094 7.433594 35.996094 8.164062 L 35.996094 9.492188 " fill-opacity="1" fill-rule="nonzero"/><path fill="#5a3d30" d="M 42.65625 54.699219 L 42.65625 65.339844 C 42.65625 66.800781 41.460938 67.996094 39.992188 67.996094 L 18.671875 67.996094 C 17.203125 67.996094 16.007812 66.800781 16.007812 65.339844 L 16.007812 54.699219 L 29.332031 58.691406 L 42.65625 54.699219 " fill-opacity="1" fill-rule="nonzero"/><path fill="#a67c52" d="M 42.65625 52.042969 L 42.65625 54.699219 L 29.332031 58.691406 L 16.007812 54.699219 L 16.007812 52.042969 C 16.007812 50.582031 17.203125 49.382812 18.671875 49.382812 L 39.992188 49.382812 C 41.460938 49.382812 42.65625 50.582031 42.65625 52.042969 " fill-opacity="1" fill-rule="nonzero"/><path fill="#a67c52" d="M 25.335938 34.757812 L 25.335938 37.414062 C 25.335938 38.148438 24.734375 38.746094 24.003906 38.746094 L 16.007812 38.746094 C 15.273438 38.746094 14.675781 38.148438 14.675781 37.414062 L 14.675781 34.757812 C 14.675781 34.023438 15.273438 33.425781 16.007812 33.425781 L 24.003906 33.425781 C 24.734375 33.425781 25.335938 34.023438 25.335938 34.757812 " fill-opacity="1" fill-rule="nonzero"/><path fill="#a67c52" d="M 43.988281 34.757812 L 43.988281 37.414062 C 43.988281 38.148438 43.390625 38.746094 42.65625 38.746094 L 34.660156 38.746094 C 33.929688 38.746094 33.328125 38.148438 33.328125 37.414062 L 33.328125 34.757812 C 33.328125 34.023438 33.929688 33.425781 34.660156 33.425781 L 42.65625 33.425781 C 43.390625 33.425781 43.988281 34.023438 43.988281 34.757812 " fill-opacity="1" fill-rule="nonzero"/><g clip-path="url(#db928b18f6)"><path fill="#5a3d30" d="M 43.988281 71.984375 L 14.675781 71.984375 C 11.730469 71.984375 9.34375 69.605469 9.34375 66.667969 L 9.34375 69.328125 C 9.34375 72.265625 11.730469 74.644531 14.675781 74.644531 L 43.988281 74.644531 C 46.933594 74.644531 49.320312 72.265625 49.320312 69.328125 L 49.320312 66.667969 C 49.320312 69.605469 46.933594 71.984375 43.988281 71.984375 " fill-opacity="1" fill-rule="nonzero"/></g><g fill="#fada5e" fill-opacity="1"><g transform="translate(76.398309, 58.220169)"><g><path d="M 16.332031 0.992188 C 24.78125 0.992188 30.308594 -3.789062 31.175781 -10 C 31.300781 -10.621094 30.804688 -10.992188 29.996094 -10.992188 L 23.164062 -10.992188 C 22.421875 -10.992188 22.046875 -10.621094 21.863281 -9.875 C 21.300781 -7.515625 19.8125 -6.210938 17.015625 -6.210938 C 12.792969 -6.210938 11.054688 -9.6875 11.054688 -13.726562 C 11.054688 -17.328125 12.792969 -21.179688 17.015625 -21.179688 C 19.8125 -21.179688 21.300781 -19.875 21.863281 -17.515625 C 22.046875 -16.769531 22.421875 -16.394531 23.164062 -16.394531 L 29.996094 -16.394531 C 30.804688 -16.394531 31.300781 -16.894531 31.175781 -17.699219 C 30.121094 -23.785156 24.65625 -28.382812 16.332031 -28.382812 C 7.203125 -28.382812 1.738281 -21.863281 1.738281 -13.726562 C 1.738281 -5.527344 7.203125 0.992188 16.332031 0.992188 Z M 16.332031 0.992188 "/></g></g></g><g fill="#fada5e" fill-opacity="1"><g transform="translate(109.371743, 58.220169)"><g><path d="M 26.425781 -22.949219 C 24.003906 -26.332031 20.152344 -28.382812 15.464844 -28.382812 C 7.390625 -28.382812 1.800781 -22.359375 1.800781 -13.726562 C 1.800781 -5.03125 7.390625 0.992188 15.464844 0.992188 C 20.152344 0.992188 24.003906 -1.054688 26.425781 -4.472656 C 27.949219 -1.429688 30.554688 0.25 34.160156 0.621094 L 34.160156 -28.011719 C 30.554688 -27.636719 27.949219 -25.960938 26.425781 -22.949219 Z M 18.320312 -6.460938 C 14.53125 -6.460938 11.800781 -9.441406 11.800781 -13.664062 C 11.800781 -17.886719 14.53125 -20.867188 18.320312 -20.867188 C 22.109375 -20.867188 24.84375 -17.886719 24.84375 -13.664062 C 24.84375 -9.441406 22.109375 -6.460938 18.320312 -6.460938 Z M 18.320312 -6.460938 "/></g></g></g><g fill="#fada5e" fill-opacity="1"><g transform="translate(146.567766, 58.220169)"><g><path d="M 16.519531 0.992188 C 25.277344 0.992188 30.371094 -2.671875 30.371094 -9.003906 C 30.371094 -20.308594 12.046875 -16.023438 12.046875 -20.804688 C 12.046875 -21.738281 12.980469 -22.605469 15.152344 -22.605469 C 17.824219 -22.605469 19.128906 -21.738281 19.875 -20.121094 C 20.183594 -19.4375 20.621094 -19.066406 21.300781 -19.066406 L 27.949219 -19.066406 C 28.816406 -19.066406 29.253906 -19.5625 29.066406 -20.433594 C 27.699219 -25.773438 22.917969 -28.382812 15.652344 -28.382812 C 7.203125 -28.382812 2.671875 -24.84375 2.671875 -19.5625 C 2.671875 -8.507812 20.992188 -13.230469 20.992188 -8.136719 C 20.992188 -6.582031 19.625 -5.464844 16.707031 -5.464844 C 15.03125 -5.464844 11.613281 -6.085938 10.867188 -9.003906 C 10.683594 -9.75 10.308594 -10.183594 9.5625 -10.183594 L 2.792969 -10.183594 C 1.988281 -10.183594 1.492188 -9.6875 1.613281 -8.882812 C 2.792969 -1.988281 8.632812 0.992188 16.519531 0.992188 Z M 16.519531 0.992188 "/></g></g></g><g fill="#fada5e" fill-opacity="1"><g transform="translate(178.671845, 58.220169)"><g><path d="M 22.484375 -27.390625 C 21.675781 -27.390625 21.242188 -26.953125 21.242188 -26.148438 L 21.242188 -13.105469 C 21.242188 -9.253906 18.941406 -6.460938 15.835938 -6.460938 C 13.351562 -6.460938 11.863281 -8.320312 11.863281 -11.488281 L 11.863281 -26.148438 C 11.863281 -26.953125 11.425781 -27.390625 10.621094 -27.390625 L 3.789062 -27.390625 C 2.980469 -27.390625 2.546875 -26.953125 2.546875 -26.148438 L 2.546875 -11.488281 C 2.546875 -3.414062 6.335938 0.992188 13.230469 0.992188 C 17.636719 0.992188 20.742188 -0.808594 22.761719 -4.535156 C 24.316406 -1.460938 26.921875 0.25 30.554688 0.621094 L 30.554688 -26.148438 C 30.554688 -26.953125 30.121094 -27.390625 29.3125 -27.390625 Z M 22.484375 -27.390625 "/></g></g></g><g fill="#fada5e" fill-opacity="1"><g transform="translate(212.204151, 58.220169)"><g><path d="M 26.425781 -22.949219 C 24.003906 -26.332031 20.152344 -28.382812 15.464844 -28.382812 C 7.390625 -28.382812 1.800781 -22.359375 1.800781 -13.726562 C 1.800781 -5.03125 7.390625 0.992188 15.464844 0.992188 C 20.152344 0.992188 24.003906 -1.054688 26.425781 -4.472656 C 27.949219 -1.429688 30.554688 0.25 34.160156 0.621094 L 34.160156 -28.011719 C 30.554688 -27.636719 27.949219 -25.960938 26.425781 -22.949219 Z M 18.320312 -6.460938 C 14.53125 -6.460938 11.800781 -9.441406 11.800781 -13.664062 C 11.800781 -17.886719 14.53125 -20.867188 18.320312 -20.867188 C 22.109375 -20.867188 24.84375 -17.886719 24.84375 -13.664062 C 24.84375 -9.441406 22.109375 -6.460938 18.320312 -6.460938 Z M 18.320312 -6.460938 "/></g></g></g><g fill="#fada5e" fill-opacity="1"><g transform="translate(249.400173, 58.220169)"><g><path d="M 11.054688 0 C 11.863281 0 12.296875 -0.433594 12.296875 -1.242188 L 12.296875 -34.78125 C 12.296875 -41.175781 9.003906 -45.335938 2.980469 -46.578125 L 2.980469 -1.242188 C 2.980469 -0.433594 3.414062 0 4.222656 0 Z M 11.054688 0 "/></g></g></g><g fill="#f5f1e6" fill-opacity="1"><g transform="translate(264.735821, 58.220169)"><g><path d="M 20.621094 0 C 21.300781 0 21.800781 -0.371094 22.046875 -0.992188 L 32.296875 -28.011719 C 25.898438 -28.011719 21.800781 -24.84375 19.5 -17.886719 L 16.148438 -7.824219 L 9.9375 -26.394531 C 9.6875 -27.078125 9.253906 -27.390625 8.570312 -27.390625 L 1.800781 -27.390625 C 0.871094 -27.390625 0.496094 -26.828125 0.808594 -25.960938 L 10.308594 -0.992188 C 10.558594 -0.371094 11.054688 0 11.738281 0 Z M 20.621094 0 "/></g></g></g><g fill="#f5f1e6" fill-opacity="1"><g transform="translate(297.522973, 58.220169)"><g><path d="M 17.390625 0.992188 C 27.140625 0.992188 32.976562 -5.03125 32.976562 -13.664062 C 32.976562 -22.234375 27.078125 -28.382812 17.390625 -28.382812 C 7.640625 -28.382812 1.738281 -22.234375 1.738281 -13.664062 C 1.738281 -5.09375 7.578125 0.992188 17.390625 0.992188 Z M 17.390625 -6.273438 C 13.230469 -6.273438 10.992188 -9.503906 10.992188 -13.601562 C 10.992188 -17.761719 13.289062 -21.117188 17.390625 -21.117188 C 21.488281 -21.117188 23.722656 -17.824219 23.722656 -13.601562 C 23.722656 -9.441406 21.488281 -6.273438 17.390625 -6.273438 Z M 17.390625 -6.273438 "/></g></g></g><g fill="#f5f1e6" fill-opacity="1"><g transform="translate(332.297226, 58.220169)"><g><path d="M 6.023438 15.527344 C 12.667969 15.527344 16.832031 12.421875 19.4375 5.714844 L 32.417969 -28.011719 C 26.023438 -28.011719 21.800781 -24.84375 19.5 -17.949219 L 16.148438 -7.824219 L 10.0625 -26.394531 C 9.8125 -27.078125 9.316406 -27.390625 8.632812 -27.390625 L 1.800781 -27.390625 C 0.871094 -27.390625 0.496094 -26.828125 0.808594 -25.960938 L 11.425781 1.988281 Z M 6.023438 15.527344 "/></g></g></g><g fill="#f5f1e6" fill-opacity="1"><g transform="translate(365.208566, 58.220169)"><g><path d="M 26.425781 -22.949219 C 24.003906 -26.332031 20.152344 -28.382812 15.464844 -28.382812 C 7.390625 -28.382812 1.800781 -22.359375 1.800781 -13.726562 C 1.800781 -5.03125 7.390625 0.992188 15.464844 0.992188 C 20.152344 0.992188 24.003906 -1.054688 26.425781 -4.472656 C 27.949219 -1.429688 30.554688 0.25 34.160156 0.621094 L 34.160156 -28.011719 C 30.554688 -27.636719 27.949219 -25.960938 26.425781 -22.949219 Z M 18.320312 -6.460938 C 14.53125 -6.460938 11.800781 -9.441406 11.800781 -13.664062 C 11.800781 -17.886719 14.53125 -20.867188 18.320312 -20.867188 C 22.109375 -20.867188 24.84375 -17.886719 24.84375 -13.664062 C 24.84375 -9.441406 22.109375 -6.460938 18.320312 -6.460938 Z M 18.320312 -6.460938 "/></g></g></g><g fill="#f5f1e6" fill-opacity="1"><g transform="translate(402.404589, 58.220169)"><g><path d="M 26.179688 -23.257812 C 23.753906 -26.488281 20 -28.382812 15.464844 -28.382812 C 7.390625 -28.382812 1.800781 -22.359375 1.800781 -13.726562 C 1.800781 -5.03125 7.390625 0.992188 15.464844 0.992188 C 19.253906 0.992188 22.484375 -0.308594 24.84375 -2.609375 L 24.84375 2.359375 C 24.84375 6.769531 22.542969 8.632812 18.445312 8.632812 C 14.71875 8.632812 12.421875 7.328125 11.800781 4.65625 C 11.613281 3.851562 11.179688 3.476562 10.433594 3.476562 L 3.601562 3.476562 C 2.792969 3.476562 2.296875 3.976562 2.421875 4.78125 C 3.476562 12.730469 10.683594 15.527344 18.320312 15.527344 C 27.636719 15.527344 34.160156 11.425781 34.160156 2.421875 L 34.160156 -28.011719 C 30.371094 -28.011719 27.667969 -26.363281 26.179688 -23.257812 Z M 18.320312 -6.460938 C 14.53125 -6.460938 11.800781 -9.441406 11.800781 -13.664062 C 11.800781 -17.886719 14.53125 -20.867188 18.320312 -20.867188 C 22.109375 -20.867188 24.84375 -17.886719 24.84375 -13.664062 C 24.84375 -9.441406 22.109375 -6.460938 18.320312 -6.460938 Z M 18.320312 -6.460938 "/></g></g></g><g fill="#f5f1e6" fill-opacity="1"><g transform="translate(439.600611, 58.220169)"><g><path d="M 17.636719 -28.382812 C 8.445312 -28.382812 1.675781 -22.605469 1.675781 -13.664062 C 1.675781 -4.597656 8.199219 0.992188 17.636719 0.992188 C 24.46875 0.992188 29.875 -1.988281 32.046875 -8.199219 C 32.355469 -9.066406 31.859375 -9.625 30.992188 -9.625 L 24.097656 -9.625 C 23.414062 -9.625 23.042969 -9.253906 22.730469 -8.570312 C 21.984375 -6.894531 20.183594 -5.652344 17.453125 -5.652344 C 13.972656 -5.652344 11.800781 -8.136719 11.550781 -11.925781 L 31.550781 -11.925781 C 32.355469 -11.925781 32.792969 -12.359375 32.792969 -13.167969 L 32.792969 -14.285156 C 32.792969 -23.351562 25.960938 -28.382812 17.636719 -28.382812 Z M 11.675781 -16.953125 C 12.203125 -19.9375 13.878906 -22.046875 17.328125 -22.046875 C 20.621094 -22.046875 22.730469 -19.9375 22.917969 -16.953125 Z M 11.675781 -16.953125 "/></g></g></g><g fill="#f5f1e6" fill-opacity="1"><g transform="translate(474.188568, 58.220169)"><g><path d="M 22.484375 -27.390625 C 21.675781 -27.390625 21.242188 -26.953125 21.242188 -26.148438 L 21.242188 -13.105469 C 21.242188 -9.253906 18.941406 -6.460938 15.835938 -6.460938 C 13.351562 -6.460938 11.863281 -8.320312 11.863281 -11.488281 L 11.863281 -26.148438 C 11.863281 -26.953125 11.425781 -27.390625 10.621094 -27.390625 L 3.789062 -27.390625 C 2.980469 -27.390625 2.546875 -26.953125 2.546875 -26.148438 L 2.546875 -11.488281 C 2.546875 -3.414062 6.335938 0.992188 13.230469 0.992188 C 17.636719 0.992188 20.742188 -0.808594 22.761719 -4.535156 C 24.316406 -1.460938 26.921875 0.25 30.554688 0.621094 L 30.554688 -26.148438 C 30.554688 -26.953125 30.121094 -27.390625 29.3125 -27.390625 Z M 22.484375 -27.390625 "/></g></g></g><g fill="#f5f1e6" fill-opacity="1"><g transform="translate(507.720861, 58.220169)"><g><path d="M 21.242188 -27.761719 C 20.621094 -27.886719 19.875 -28.011719 19.191406 -28.011719 C 15.898438 -28.011719 12.824219 -26.519531 10.867188 -22.542969 C 9.378906 -25.371094 6.707031 -27.234375 2.980469 -28.011719 L 2.980469 -1.242188 C 2.980469 -0.433594 3.414062 0 4.222656 0 L 11.054688 0 C 11.863281 0 12.296875 -0.433594 12.296875 -1.242188 L 12.296875 -13.789062 C 12.667969 -17.574219 14.59375 -19.5625 17.949219 -19.5625 C 18.816406 -19.5625 19.75 -19.4375 20.804688 -19.191406 C 21.675781 -18.941406 22.234375 -19.316406 22.234375 -20.183594 L 22.234375 -26.332031 C 22.234375 -27.015625 21.921875 -27.574219 21.242188 -27.761719 Z M 21.242188 -27.761719 "/></g></g></g></svg>