<svg xmlns="http://www.w3.org/2000/svg" xmlns:xlink="http://www.w3.org/1999/xlink" width="79" zoomAndPan="magnify" viewBox="0 0 59.25 74.999997" height="100" preserveAspectRatio="xMidYMid meet" version="1.0"><defs><clipPath id="57fe6914e2"><path d="M 47 45 L 58.507812 45 L 58.507812 54 L 47 54 Z M 47 45 " clip-rule="nonzero"/></clipPath><clipPath id="b75df16136"><path d="M 22 0.46875 L 36 0.46875 L 36 12 L 22 12 Z M 22 0.46875 " clip-rule="nonzero"/></clipPath><clipPath id="828772eb20"><path d="M 9 66 L 50 66 L 50 74.53125 L 9 74.53125 Z M 9 66 " clip-rule="nonzero"/></clipPath></defs><path fill="#a67c52" d="M 10.652344 45.433594 L 10.652344 53.371094 L 1.347656 53.371094 C 0.617188 53.371094 0.0195312 52.777344 0.0195312 52.046875 L 0.0195312 49.402344 C 0.0195312 47.210938 1.804688 45.433594 4.007812 45.433594 L 10.652344 45.433594 " fill-opacity="1" fill-rule="nonzero"/><path fill="#5a3d30" d="M 10.652344 53.371094 L 10.652344 66.597656 L 5.335938 66.597656 C 3.128906 66.597656 1.347656 64.824219 1.347656 62.628906 L 1.347656 53.371094 L 10.652344 53.371094 " fill-opacity="1" fill-rule="nonzero"/><path fill="#5a3d30" d="M 57.160156 53.371094 L 57.160156 62.628906 C 57.160156 64.824219 55.378906 66.597656 53.175781 66.597656 L 47.859375 66.597656 L 47.859375 53.371094 L 57.160156 53.371094 " fill-opacity="1" fill-rule="nonzero"/><g clip-path="url(#57fe6914e2)"><path fill="#a67c52" d="M 54.503906 45.433594 C 56.703125 45.433594 58.488281 47.210938 58.488281 49.402344 L 58.488281 52.046875 C 58.488281 52.777344 57.890625 53.371094 57.160156 53.371094 L 47.859375 53.371094 L 47.859375 45.433594 L 54.503906 45.433594 " fill-opacity="1" fill-rule="nonzero"/></g><path fill="#8a6642" d="M 9.320312 25.914062 L 9.320312 68.234375 C 9.320312 71.15625 11.699219 73.523438 14.636719 73.523438 L 43.871094 73.523438 C 46.808594 73.523438 49.1875 71.15625 49.1875 68.234375 L 49.1875 25.914062 L 9.320312 25.914062 " fill-opacity="1" fill-rule="nonzero"/><g clip-path="url(#b75df16136)"><path fill="#5a3d30" d="M 35.898438 11.050781 L 33.242188 11.050781 L 33.242188 4.4375 C 33.242188 3.707031 32.644531 3.113281 31.914062 3.113281 L 26.597656 3.113281 C 25.863281 3.113281 25.269531 3.707031 25.269531 4.4375 L 25.269531 11.050781 L 22.609375 11.050781 L 22.609375 4.4375 C 22.609375 2.246094 24.394531 0.46875 26.597656 0.46875 L 31.914062 0.46875 C 34.113281 0.46875 35.898438 2.246094 35.898438 4.4375 L 35.898438 11.050781 " fill-opacity="1" fill-rule="nonzero"/></g><path fill="#fada5e" d="M 51.84375 9.726562 L 6.664062 9.726562 C 4.457031 9.726562 2.675781 11.5 2.675781 13.695312 L 2.675781 24.273438 C 2.675781 26.46875 4.457031 28.242188 6.664062 28.242188 L 51.84375 28.242188 C 54.050781 28.242188 55.832031 26.46875 55.832031 24.273438 L 55.832031 13.695312 C 55.832031 11.5 54.050781 9.726562 51.84375 9.726562 " fill-opacity="1" fill-rule="nonzero"/><path fill="#d1b646" d="M 51.84375 24.273438 L 6.664062 24.273438 C 4.457031 24.273438 2.675781 22.503906 2.675781 20.308594 L 2.675781 24.273438 C 2.675781 26.46875 4.457031 28.242188 6.664062 28.242188 L 51.84375 28.242188 C 54.050781 28.242188 55.832031 26.46875 55.832031 24.273438 L 55.832031 20.308594 C 55.832031 22.503906 54.050781 24.273438 51.84375 24.273438 " fill-opacity="1" fill-rule="nonzero"/><path fill="#5a3d30" d="M 17.296875 9.726562 L 17.296875 41.46875 C 17.296875 42.929688 18.484375 44.113281 19.953125 44.113281 C 21.421875 44.113281 22.609375 42.929688 22.609375 41.46875 L 22.609375 8.402344 C 22.609375 7.675781 22.011719 7.082031 21.28125 7.082031 L 18.625 7.082031 C 17.890625 7.082031 17.296875 7.675781 17.296875 8.402344 L 17.296875 9.726562 " fill-opacity="1" fill-rule="nonzero"/><path fill="#5a3d30" d="M 35.898438 9.726562 L 35.898438 41.46875 C 35.898438 42.929688 37.085938 44.113281 38.558594 44.113281 C 40.027344 44.113281 41.214844 42.929688 41.214844 41.46875 L 41.214844 8.402344 C 41.214844 7.675781 40.617188 7.082031 39.886719 7.082031 L 37.226562 7.082031 C 36.496094 7.082031 35.898438 7.675781 35.898438 8.402344 L 35.898438 9.726562 " fill-opacity="1" fill-rule="nonzero"/><path fill="#5a3d30" d="M 42.542969 54.691406 L 42.542969 65.273438 C 42.542969 66.730469 41.347656 67.917969 39.886719 67.917969 L 18.625 67.917969 C 17.160156 67.917969 15.964844 66.730469 15.964844 65.273438 L 15.964844 54.691406 L 29.253906 58.660156 L 42.542969 54.691406 " fill-opacity="1" fill-rule="nonzero"/><path fill="#a67c52" d="M 42.542969 52.046875 L 42.542969 54.691406 L 29.253906 58.660156 L 15.964844 54.691406 L 15.964844 52.046875 C 15.964844 50.597656 17.160156 49.402344 18.625 49.402344 L 39.886719 49.402344 C 41.347656 49.402344 42.542969 50.597656 42.542969 52.046875 " fill-opacity="1" fill-rule="nonzero"/><path fill="#a67c52" d="M 25.269531 34.855469 L 25.269531 37.5 C 25.269531 38.226562 24.671875 38.824219 23.9375 38.824219 L 15.964844 38.824219 C 15.234375 38.824219 14.636719 38.226562 14.636719 37.5 L 14.636719 34.855469 C 14.636719 34.125 15.234375 33.53125 15.964844 33.53125 L 23.9375 33.53125 C 24.671875 33.53125 25.269531 34.125 25.269531 34.855469 " fill-opacity="1" fill-rule="nonzero"/><path fill="#a67c52" d="M 43.871094 34.855469 L 43.871094 37.5 C 43.871094 38.226562 43.273438 38.824219 42.542969 38.824219 L 34.570312 38.824219 C 33.839844 38.824219 33.242188 38.226562 33.242188 37.5 L 33.242188 34.855469 C 33.242188 34.125 33.839844 33.53125 34.570312 33.53125 L 42.542969 33.53125 C 43.273438 33.53125 43.871094 34.125 43.871094 34.855469 " fill-opacity="1" fill-rule="nonzero"/><g clip-path="url(#828772eb20)"><path fill="#5a3d30" d="M 43.871094 71.886719 L 14.636719 71.886719 C 11.699219 71.886719 9.320312 69.519531 9.320312 66.597656 L 9.320312 69.242188 C 9.320312 72.164062 11.699219 74.53125 14.636719 74.53125 L 43.871094 74.53125 C 46.808594 74.53125 49.1875 72.164062 49.1875 69.242188 L 49.1875 66.597656 C 49.1875 69.519531 46.808594 71.886719 43.871094 71.886719 " fill-opacity="1" fill-rule="nonzero"/></g></svg>